<svg width="327" height="50" viewBox="0 0 327 50" fill="none" xmlns="http://www.w3.org/2000/svg">
<path d="M14.1309 0.0236417C14.0636 0.0335906 13.8844 0.0534883 13.7325 0.0684116C13.4189 0.0982581 13.1599 0.140541 12.7367 0.23008C12.2338 0.334543 12.1915 0.344492 12.1467 0.369364C12.1218 0.384287 12.0845 0.394236 12.0621 0.394236C12.0247 0.394236 11.8505 0.446468 11.716 0.496212C11.6886 0.506161 11.5891 0.538495 11.492 0.568341C11.3974 0.598188 11.3077 0.633009 11.2928 0.64047C11.2804 0.650419 11.1982 0.680266 11.1136 0.707625C11.0264 0.732497 10.9567 0.762344 10.9567 0.772292C10.9567 0.782241 10.9169 0.797165 10.8696 0.807113C10.8223 0.814575 10.7825 0.831985 10.7825 0.841934C10.7825 0.851883 10.7526 0.869294 10.7152 0.876755C10.648 0.894166 9.98581 1.21253 9.96092 1.24238C9.95345 1.24984 9.90117 1.27968 9.84391 1.30704C9.69205 1.38663 9.62981 1.42145 9.59247 1.45628C9.57504 1.47369 9.54766 1.48861 9.53521 1.48861C9.52276 1.48861 9.49787 1.50105 9.48044 1.51348C9.46301 1.5284 9.33356 1.61794 9.18917 1.71246C9.04478 1.80697 8.91781 1.89154 8.90287 1.90397C8.89043 1.91641 8.80578 1.98108 8.71616 2.04823C8.62654 2.11539 8.54936 2.17757 8.54189 2.18503C8.53442 2.19249 8.47468 2.24223 8.40497 2.29695C8.33775 2.35167 8.278 2.4039 8.27303 2.41385C8.26805 2.42629 8.25311 2.43375 8.24066 2.43375C8.19087 2.43375 7.3295 3.32666 7.13532 3.57538C7.11042 3.6102 7.08055 3.64502 7.07308 3.65248C7.06561 3.65994 7.03325 3.7072 6.99839 3.75695C6.96354 3.80918 6.92869 3.85146 6.91873 3.85146C6.90628 3.85146 6.89881 3.8639 6.89881 3.87633C6.89881 3.89126 6.87143 3.93354 6.83658 3.97085C6.80172 4.00815 6.77434 4.05044 6.77434 4.06785C6.77434 4.08526 6.7594 4.10764 6.74446 4.11759C6.7121 4.13749 6.66231 4.20713 6.63243 4.27429C6.62248 4.29418 6.61003 4.31657 6.60256 4.32403C6.55526 4.36383 6.24407 4.88365 6.18432 5.02542C6.16192 5.07766 6.13702 5.11994 6.12457 5.11994C6.11462 5.11994 6.09968 5.15227 6.08972 5.19455C6.07976 5.23435 6.06234 5.26917 6.04989 5.26917C6.03744 5.26917 6.02748 5.27912 6.02748 5.29156C6.02748 5.30648 5.98267 5.41343 5.9279 5.53033C5.87313 5.64723 5.82832 5.75169 5.82832 5.75915C5.82832 5.76661 5.81338 5.80641 5.79347 5.84869C5.77604 5.89346 5.74119 5.97803 5.71629 6.04021C5.6914 6.10239 5.65654 6.18695 5.63912 6.23172C5.6192 6.274 5.60426 6.32624 5.60426 6.34613C5.60426 6.36852 5.59431 6.3909 5.58186 6.39836C5.5719 6.40583 5.55447 6.46055 5.54452 6.51775C5.53456 6.57496 5.51713 6.63465 5.50717 6.64957C5.45987 6.70678 5.2881 7.44051 5.22835 7.84343C5.21341 7.95287 5.19101 8.0648 5.17856 8.09216C5.06653 8.36824 5.06902 10.9077 5.18354 11.1191C5.19598 11.144 5.20594 11.2111 5.20594 11.2708C5.20594 11.328 5.22337 11.4424 5.24329 11.5195C5.2632 11.5991 5.28063 11.6961 5.28063 11.7359C5.28063 11.7757 5.29059 11.813 5.30303 11.8205C5.31548 11.8279 5.33291 11.9026 5.34287 11.9846C5.35282 12.0667 5.37025 12.1413 5.3827 12.1488C5.39515 12.1563 5.4051 12.1861 5.4051 12.2135C5.4051 12.2632 5.53207 12.7034 5.57937 12.8179C5.58933 12.8452 5.61671 12.9223 5.64161 12.992C5.66401 13.0591 5.69389 13.1387 5.70633 13.1661C5.71629 13.1934 5.75115 13.278 5.77853 13.3526C5.84824 13.5317 5.93537 13.7282 6.02748 13.9048C6.0698 13.9844 6.10217 14.0664 6.10217 14.0863C6.10217 14.1062 6.10964 14.1236 6.12208 14.1236C6.13204 14.1236 6.17934 14.2007 6.22664 14.2928C6.27394 14.3848 6.32125 14.4644 6.32871 14.4719C6.33618 14.4793 6.35112 14.5017 6.35859 14.5216C6.36855 14.5415 6.39842 14.5912 6.4258 14.6335C6.45319 14.6733 6.48306 14.728 6.49053 14.7504C6.50049 14.7753 6.51543 14.7952 6.52539 14.7952C6.53534 14.7952 6.55277 14.8226 6.56024 14.8574C6.5702 14.8922 6.58762 14.9196 6.60007 14.9196C6.61501 14.9196 6.62497 14.937 6.62497 14.9569C6.62497 14.9792 6.64239 15.0016 6.66231 15.0091C6.68223 15.019 6.69965 15.034 6.69965 15.0464C6.69965 15.0663 6.85898 15.3026 6.94113 15.4046C6.95358 15.417 7.00088 15.4792 7.04818 15.5414C7.09548 15.6035 7.14527 15.6657 7.16021 15.6806C7.17266 15.698 7.24237 15.7752 7.30958 15.8547C7.60335 16.1955 7.85479 16.4542 8.12863 16.6929C8.2083 16.7651 8.31037 16.8546 8.35767 16.8969C8.44729 16.9765 8.44729 16.979 8.61658 17.1083C8.67882 17.1556 8.73359 17.2003 8.74105 17.2078C8.74852 17.2177 8.81076 17.26 8.87798 17.3073C8.94768 17.3545 9.00743 17.3968 9.0149 17.4043C9.0622 17.459 9.69703 17.8545 9.73686 17.8545C9.74682 17.8545 9.76176 17.8619 9.76673 17.8719C9.77171 17.8843 9.83146 17.9191 9.89868 17.9539C9.96839 17.9888 10.0281 18.0211 10.0356 18.0286C10.0729 18.0659 10.7899 18.4016 10.8298 18.4016C10.8447 18.4016 10.8571 18.4116 10.8571 18.4265C10.8571 18.439 10.882 18.4514 10.9144 18.4514C10.9468 18.4514 10.9941 18.4688 11.0215 18.4887C11.0463 18.5086 11.0936 18.526 11.126 18.526C11.1559 18.526 11.1808 18.536 11.1808 18.5484C11.1808 18.5608 11.2256 18.5782 11.2804 18.5882C11.3351 18.5981 11.3799 18.6155 11.3799 18.628C11.3799 18.6404 11.4023 18.6504 11.4322 18.6504C11.4621 18.6504 11.5194 18.6653 11.5617 18.6827C11.6065 18.7026 11.7036 18.7349 11.7783 18.7573C11.8529 18.7797 11.97 18.8145 12.0347 18.8369C12.0994 18.8568 12.1741 18.8742 12.1965 18.8742C12.2214 18.8742 12.2513 18.8842 12.2637 18.8966C12.2787 18.909 12.3558 18.9314 12.438 18.9463C12.5201 18.9613 12.6371 18.9861 12.6994 18.9986C13.4363 19.1652 14.1632 19.2349 15.164 19.2349C16.1747 19.2349 16.9739 19.1578 17.6535 18.9986C17.7158 18.9837 17.8278 18.9588 17.9025 18.9463C17.9772 18.9339 18.0593 18.9115 18.0817 18.8991C18.1066 18.8842 18.1415 18.8742 18.1639 18.8742C18.1838 18.8742 18.2535 18.8568 18.3182 18.8369C18.3829 18.817 18.5 18.7822 18.5746 18.7598C18.6493 18.7374 18.7464 18.7026 18.7912 18.6852C18.8336 18.6653 18.8908 18.6504 18.9207 18.6504C18.9506 18.6504 18.973 18.6404 18.973 18.628C18.973 18.6155 19.0128 18.5981 19.0626 18.5882C19.1124 18.5807 19.1721 18.5633 19.1945 18.5509C19.2169 18.5384 19.2792 18.5111 19.3339 18.4887C19.4958 18.4215 19.5256 18.4091 19.7074 18.327C19.9638 18.2101 20.0534 18.1678 20.0684 18.1529C20.0758 18.1455 20.1381 18.1106 20.2053 18.0758C20.4368 17.9564 20.6285 17.8495 20.6633 17.8221C20.6982 17.7923 20.7804 17.7425 20.8401 17.7152C20.86 17.7052 20.8824 17.6903 20.8899 17.6828C20.8974 17.6754 20.987 17.6107 21.0891 17.5436C21.1911 17.4739 21.2807 17.4142 21.2882 17.4068C21.3181 17.3744 21.5073 17.2327 21.5222 17.2327C21.5297 17.2327 21.567 17.2028 21.6069 17.163C21.6467 17.1257 21.7463 17.0387 21.8259 16.9715C22.0226 16.8049 22.2566 16.586 22.3189 16.5139C22.3786 16.4442 22.6251 16.1731 22.6823 16.1134C22.7023 16.0935 22.7446 16.0413 22.7769 15.9965L22.8317 15.9194L22.7122 15.8075C22.6475 15.7453 22.5504 15.6533 22.4956 15.6035C22.4409 15.5538 22.284 15.407 22.1471 15.2827C22.0102 15.1558 21.8309 14.9917 21.7513 14.9171C21.6691 14.8424 21.5621 14.7405 21.5098 14.6882C21.46 14.6385 21.4127 14.5962 21.4052 14.5962C21.3978 14.5962 21.3231 14.5266 21.2359 14.4395C21.1488 14.355 20.9994 14.2157 20.9023 14.1336C20.8077 14.049 20.6484 13.9023 20.5513 13.8103C20.4567 13.7157 20.3098 13.5814 20.2277 13.5093L20.0808 13.38L19.7323 13.7332C19.5406 13.9272 19.329 14.1311 19.2593 14.1858C19.192 14.2405 19.1298 14.2903 19.1223 14.2977C19.0775 14.345 18.8983 14.4719 18.8784 14.4719C18.8634 14.4719 18.8485 14.4818 18.8435 14.4942C18.8336 14.5241 18.4427 14.7728 18.251 14.8723C18.1614 14.9196 18.0842 14.9618 18.0767 14.9693C18.0693 14.9768 17.9747 15.0215 17.8651 15.0663C17.7556 15.1111 17.6436 15.1583 17.6187 15.1732C17.5913 15.1882 17.5415 15.2081 17.5066 15.218C17.4718 15.2305 17.3473 15.2678 17.2303 15.3051C16.8519 15.4245 16.4859 15.4966 15.8735 15.5687C15.3009 15.6359 14.1682 15.5215 13.5707 15.3374C13.2894 15.2504 13.1126 15.1931 13.0479 15.1658C13.0131 15.1509 12.9533 15.1235 12.911 15.1061C12.8712 15.0887 12.7965 15.0563 12.7442 15.034C12.6944 15.0116 12.6421 14.9942 12.6272 14.9942C12.6123 14.9942 12.5998 14.9842 12.5998 14.9718C12.5998 14.9593 12.5699 14.9419 12.5326 14.932C12.4952 14.9245 12.4579 14.9071 12.4504 14.8997C12.443 14.8897 12.3932 14.8599 12.3384 14.8325C12.2065 14.7678 11.8181 14.5191 11.8081 14.4918C11.8032 14.4818 11.7882 14.4719 11.7733 14.4719C11.7583 14.4719 11.7061 14.437 11.6563 14.3972C11.6065 14.355 11.5169 14.2803 11.4546 14.2281C11.2082 14.0266 10.7003 13.4919 10.6505 13.3849C10.6356 13.3526 10.6157 13.3277 10.6057 13.3277C10.5957 13.3277 10.5509 13.268 10.5061 13.1959C10.4588 13.1263 10.414 13.0641 10.4041 13.0591C10.3916 13.0541 10.3841 13.0392 10.3841 13.0293C10.3841 13.0168 10.3343 12.9223 10.2721 12.8228C10.2099 12.7209 10.1601 12.6263 10.1601 12.6114C10.1601 12.5965 10.1526 12.5816 10.1427 12.5766C10.1227 12.5691 9.99826 12.3229 9.92606 12.1463C9.90366 12.0916 9.87627 12.0294 9.86632 12.0095C9.85387 11.9896 9.82648 11.9051 9.7991 11.823C9.7742 11.7409 9.73935 11.6389 9.71943 11.5941C9.70201 11.5519 9.68707 11.4897 9.68707 11.4549C9.68707 11.42 9.67711 11.3852 9.66466 11.3778C9.65222 11.3678 9.63479 11.3031 9.62483 11.231C9.61736 11.1614 9.59994 11.0793 9.58749 11.0519C9.56259 10.9947 9.52276 10.7609 9.48044 10.4177C9.44061 10.1018 9.4431 9.12435 9.48293 8.81345C9.53272 8.40803 9.61736 7.95785 9.65969 7.86831C9.67213 7.84095 9.68956 7.78374 9.69454 7.74395C9.70699 7.66933 9.74184 7.56238 9.80408 7.41563C9.8215 7.37335 9.83644 7.31615 9.83644 7.2863C9.83644 7.25645 9.84889 7.23407 9.86134 7.23407C9.87627 7.23407 9.88623 7.21666 9.88623 7.19427C9.88623 7.17437 9.93602 7.0525 9.99826 6.92565C10.0605 6.79632 10.1103 6.67942 10.1103 6.6645C10.1103 6.64957 10.1227 6.63714 10.1352 6.63714C10.1501 6.63714 10.1601 6.62719 10.1601 6.61226C10.1601 6.56003 10.5534 5.94321 10.648 5.85118C10.6779 5.82382 10.7053 5.789 10.7103 5.77159C10.7501 5.65966 11.3476 5.06522 11.5891 4.89609C11.6189 4.87619 11.6538 4.84883 11.6662 4.83142C11.6812 4.8165 11.7409 4.77173 11.8032 4.73442C11.8654 4.69462 11.9202 4.65732 11.9276 4.64737C11.9351 4.63991 12.0123 4.58767 12.1019 4.53544C12.1915 4.48321 12.2687 4.42849 12.2712 4.41854C12.2762 4.4086 12.3011 4.39865 12.326 4.39865C12.3484 4.39865 12.3832 4.38124 12.4006 4.36134C12.4181 4.34144 12.4529 4.32403 12.4778 4.32403C12.5052 4.32403 12.5251 4.31408 12.5251 4.30165C12.5251 4.28921 12.555 4.2718 12.5923 4.26185C12.6297 4.25439 12.667 4.23698 12.6745 4.22703C12.682 4.21708 12.7566 4.18226 12.8438 4.15241C12.9284 4.12008 13.0056 4.08277 13.0131 4.07282C13.0205 4.06039 13.0479 4.05044 13.0753 4.05044C13.1002 4.05044 13.1425 4.04049 13.1674 4.02805C13.2272 3.99323 13.6877 3.85146 13.7325 3.85146C13.7524 3.85146 13.7898 3.84151 13.8147 3.82908C13.8371 3.81664 13.969 3.78928 14.106 3.76441C14.2429 3.74202 14.4171 3.71218 14.4918 3.69725C14.7109 3.65746 15.764 3.64253 16.0229 3.67736C16.5905 3.75197 16.8643 3.79923 16.8967 3.83156C16.9067 3.844 16.9415 3.85146 16.9739 3.85146C17.0237 3.85146 17.4021 3.96587 17.5415 4.02557C17.5689 4.03551 17.6535 4.07033 17.7282 4.10018C17.905 4.17231 18.2834 4.35139 18.3008 4.37129C18.3083 4.37875 18.3531 4.4086 18.4004 4.43347C18.5074 4.49067 18.9057 4.74686 18.9232 4.76924C18.9306 4.7767 19.0028 4.83391 19.085 4.8936C19.1671 4.95578 19.2468 5.01796 19.2593 5.03289C19.2742 5.04532 19.324 5.09009 19.3713 5.12989C19.5231 5.25425 19.7771 5.50048 19.9165 5.66215C19.9912 5.74672 20.0609 5.81636 20.0758 5.81636C20.1007 5.81636 20.153 5.77159 20.3646 5.56764C20.4418 5.49302 20.5986 5.34627 20.7131 5.2443C20.8301 5.14232 20.982 4.99806 21.0567 4.92594C21.1289 4.85629 21.1936 4.7966 21.1986 4.7966C21.2061 4.7966 21.3206 4.68965 21.455 4.56032C21.5894 4.43098 21.704 4.32403 21.7114 4.32403C21.7189 4.32403 21.8235 4.232 21.9405 4.11759C22.2541 3.81913 22.6301 3.46843 22.7396 3.3764C22.7894 3.33412 22.8317 3.28935 22.8317 3.2794C22.8317 3.26945 22.7919 3.21971 22.7446 3.16996C22.6973 3.11773 22.6574 3.07048 22.6574 3.06301C22.6574 3.04063 21.9703 2.36908 21.821 2.24223C21.7089 2.14772 21.5596 2.02585 21.4998 1.97859C21.4874 1.96864 21.4426 1.93133 21.4002 1.899C21.3604 1.86418 21.3181 1.83682 21.3106 1.83682C21.3032 1.83682 21.2633 1.80946 21.2235 1.77464C21.1837 1.73982 21.109 1.68759 21.0592 1.65774C21.0069 1.62789 20.9646 1.59556 20.9646 1.58312C20.9646 1.57317 20.9496 1.56323 20.9297 1.56323C20.9098 1.56323 20.8774 1.5483 20.86 1.53089C20.8426 1.51348 20.8102 1.4911 20.7903 1.48115C20.7704 1.4712 20.7206 1.44135 20.6783 1.41648C20.6384 1.38912 20.5638 1.34684 20.5165 1.31948C20.4692 1.29212 20.3845 1.24486 20.3297 1.21502C20.143 1.10558 19.6601 0.866806 19.6277 0.866806C19.6103 0.866806 19.5953 0.85437 19.5953 0.841934C19.5953 0.827011 19.5754 0.817062 19.553 0.817062C19.5281 0.817062 19.4783 0.802139 19.4435 0.782241C19.3663 0.742446 18.8933 0.565854 18.6991 0.506161C18.6244 0.481289 18.5174 0.446468 18.4626 0.429057C18.4054 0.40916 18.3431 0.394236 18.3182 0.394236C18.2958 0.394236 18.256 0.384287 18.2311 0.369364C18.2087 0.356928 18.134 0.334543 18.0643 0.31962C17.9971 0.304697 17.8104 0.264901 17.6535 0.23008C17.3 0.15049 16.9963 0.103233 16.6577 0.0708988C16.5133 0.0559755 16.3216 0.0335906 16.2295 0.0211545C16.0328 -0.008692 14.3101 -0.00620479 14.1309 0.0236417Z" fill="#35414D"/>
<path d="M14.4295 24.9704C14.3474 24.9803 14.1507 25.0027 13.9939 25.0177C13.5781 25.0574 13.2694 25.1047 12.7865 25.2042C12.6769 25.2266 12.5201 25.2589 12.4379 25.2738C12.3558 25.2888 12.2836 25.3087 12.2761 25.3186C12.2686 25.3286 12.2114 25.3435 12.1442 25.3534C12.0794 25.3634 12.0197 25.3808 12.0122 25.3932C12.0048 25.4057 11.9674 25.4156 11.9276 25.4156C11.8878 25.4156 11.8504 25.4256 11.8429 25.438C11.833 25.4504 11.7807 25.4678 11.7234 25.4778C11.6662 25.4877 11.6015 25.5051 11.5791 25.5176C11.5591 25.53 11.4347 25.5748 11.3052 25.6146C11.1757 25.6569 11.0463 25.6991 11.0189 25.7116C10.9915 25.724 10.9193 25.7514 10.8571 25.7762C10.7949 25.7986 10.7127 25.8335 10.6754 25.8534C10.6355 25.8733 10.5832 25.8882 10.5559 25.8882C10.531 25.8882 10.5086 25.8981 10.5086 25.9106C10.5086 25.923 10.4812 25.9404 10.4463 25.9479C10.3243 25.9777 9.60486 26.3259 9.2887 26.5075C9.21401 26.5523 9.12439 26.5995 9.08954 26.6169C9.05468 26.6319 9.02232 26.6542 9.01485 26.6617C9.00738 26.6716 8.95759 26.704 8.90282 26.7313C8.77337 26.801 8.70615 26.8433 8.69121 26.8607C8.68374 26.8681 8.63395 26.9005 8.57918 26.9328C8.52441 26.9651 8.4572 27.0149 8.42981 27.0398C8.40243 27.0646 8.35513 27.0895 8.32525 27.097C8.29289 27.1069 8.26799 27.1218 8.26799 27.1318C8.26799 27.1442 8.22567 27.179 8.17588 27.2089C8.1236 27.2412 8.07879 27.276 8.07381 27.286C8.06883 27.2959 8.04892 27.3059 8.03149 27.3059C8.01406 27.3059 7.99415 27.3158 7.98917 27.3258C7.98668 27.3357 7.9095 27.4004 7.81988 27.4676C7.73026 27.5347 7.65308 27.5969 7.64562 27.6043C7.63815 27.6118 7.57342 27.6616 7.50371 27.7163C7.43152 27.7685 7.37177 27.8232 7.37177 27.8332C7.37177 27.8431 7.35932 27.8531 7.34438 27.8531C7.32945 27.8531 7.30455 27.868 7.28713 27.8829C7.2697 27.9003 7.17261 27.9874 7.07303 28.0769C6.81661 28.3033 6.13199 28.9897 6.02743 29.1215C5.98013 29.1837 5.92785 29.2434 5.91291 29.2583C5.89798 29.2708 5.80337 29.3827 5.70379 29.5071C5.60421 29.6289 5.51459 29.7334 5.50214 29.7384C5.4897 29.7434 5.47974 29.7632 5.47974 29.7831C5.47974 29.803 5.46978 29.818 5.45733 29.818C5.44488 29.818 5.42746 29.8379 5.41999 29.8603C5.41003 29.8851 5.37269 29.9398 5.33535 29.9821C5.298 30.0269 5.23328 30.1139 5.19344 30.1761C5.15361 30.2383 5.11129 30.2905 5.10133 30.2905C5.09137 30.2905 5.08141 30.3055 5.08141 30.3254C5.08141 30.3453 5.06648 30.3776 5.04905 30.395C5.01918 30.4248 4.81255 30.7333 4.67811 30.9496C4.50634 31.2232 4.18519 31.8301 4.18519 31.8799C4.18519 31.8923 4.17772 31.9072 4.16776 31.9122C4.15532 31.9147 4.13042 31.9595 4.10801 32.0067C4.0159 32.2007 3.90387 32.4445 3.88396 32.4917C3.84164 32.5987 3.78189 32.7429 3.74952 32.8151C3.6848 32.9668 3.64247 33.0663 3.60015 33.1832C3.57526 33.2478 3.54538 33.3075 3.53543 33.315C3.52298 33.3224 3.51302 33.3448 3.51302 33.3647C3.51302 33.3846 3.48564 33.4568 3.45327 33.5239C3.41842 33.5936 3.38357 33.6831 3.3761 33.7229C3.36614 33.7652 3.34871 33.7975 3.33626 33.7975C3.32382 33.7975 3.31386 33.8199 3.31386 33.8448C3.31386 33.8721 3.29892 33.9244 3.27901 33.9641C3.2317 34.0587 3.19934 34.1333 3.13959 34.2949C3.11221 34.3696 3.07735 34.4591 3.06242 34.4939C3.04748 34.5287 3.0201 34.5884 3.00267 34.6307C2.98773 34.6705 2.95288 34.7476 2.93047 34.7999C2.90807 34.8521 2.89064 34.9093 2.89064 34.9292C2.89064 34.9491 2.88068 34.9665 2.86575 34.9665C2.8533 34.9665 2.84085 34.9839 2.84085 35.0063C2.84085 35.0287 2.82591 35.0809 2.806 35.1232C2.78608 35.168 2.73629 35.2923 2.69397 35.4018C2.64916 35.5112 2.60186 35.6281 2.58692 35.6629C2.57198 35.6977 2.55207 35.7475 2.53962 35.7748C2.52966 35.8022 2.4973 35.8768 2.46991 35.9415C2.44004 36.0061 2.41763 36.0708 2.41763 36.0857C2.41763 36.0982 2.40768 36.1305 2.39523 36.1554C2.36286 36.2225 2.30312 36.3618 2.25581 36.4837C2.23092 36.5459 2.19607 36.6304 2.17864 36.6752C2.15872 36.7175 2.14379 36.7697 2.14379 36.7921C2.14379 36.8145 2.13383 36.8319 2.11889 36.8319C2.10644 36.8319 2.08902 36.8717 2.07906 36.919C2.07159 36.9662 2.05416 37.0135 2.04172 37.0209C2.02927 37.0284 2.01931 37.0508 2.01931 37.0707C2.01931 37.0906 1.99193 37.1627 1.95707 37.2348C1.92222 37.3045 1.89483 37.3741 1.89483 37.3866C1.89483 37.399 1.8799 37.4438 1.85998 37.486C1.77783 37.6751 1.71808 37.8218 1.65833 37.976C1.63593 38.0382 1.60107 38.1203 1.58116 38.1576C1.56124 38.1974 1.5463 38.2422 1.5463 38.2621C1.5463 38.2795 1.52888 38.3267 1.50896 38.364C1.48904 38.4038 1.47162 38.4561 1.47162 38.4784C1.47162 38.5033 1.46166 38.5232 1.44921 38.5232C1.43676 38.5232 1.41685 38.558 1.40938 38.6028C1.39942 38.6476 1.38199 38.6998 1.37204 38.7222C1.32225 38.8291 1.27246 38.9485 1.17288 39.2072C1.16292 39.2346 1.1206 39.3415 1.07827 39.4435C1.03844 39.5455 0.973714 39.7071 0.936371 39.8041C0.896539 39.8986 0.851728 40.0106 0.836791 40.0528C0.819364 40.0926 0.769574 40.217 0.727252 40.3264C0.682441 40.4359 0.63763 40.5453 0.625182 40.5677C0.610245 40.5926 0.600287 40.6249 0.600287 40.6398C0.600287 40.6547 0.58286 40.7045 0.562944 40.7517C0.543028 40.799 0.508175 40.8736 0.488259 40.9209C0.468342 40.9681 0.450916 41.0179 0.450916 41.0328C0.450916 41.0477 0.440958 41.0801 0.426021 41.1049C0.361293 41.2218 0.164622 41.7591 0.0924256 42.0053C-0.0320502 42.4381 -0.0295606 42.9405 0.0924256 43.3235C0.129768 43.433 0.323951 43.8458 0.351335 43.8707C0.358804 43.8782 0.393657 43.9279 0.42851 43.9851C0.550496 44.1692 0.779532 44.403 0.986162 44.5522C1.1903 44.699 1.57618 44.8905 1.6658 44.8905C1.69069 44.8905 1.72057 44.9004 1.73302 44.9129C1.77285 44.9526 2.1413 44.9999 2.39274 44.9999C2.64418 44.9999 3.01263 44.9526 3.05246 44.9129C3.06491 44.9004 3.09976 44.8905 3.12963 44.8905C3.15951 44.8905 3.21677 44.8755 3.2566 44.8556C3.29394 44.8357 3.40099 44.7835 3.49559 44.7387C3.58771 44.694 3.66239 44.6467 3.66239 44.6368C3.66239 44.6268 3.67484 44.6169 3.68978 44.6169C3.70471 44.6169 3.7321 44.602 3.74952 44.5845C3.76944 44.5696 3.81923 44.5273 3.86404 44.4925C3.98105 44.398 4.18519 44.199 4.18519 44.1766C4.18519 44.1667 4.22004 44.1219 4.25987 44.0772C4.3022 44.0324 4.33456 43.9901 4.33456 43.9826C4.33456 43.9727 4.35946 43.9304 4.39182 43.8881C4.4914 43.7439 4.68309 43.3758 4.68309 43.321C4.68309 43.3086 4.69554 43.2788 4.70799 43.2539C4.74533 43.1917 4.85985 42.8733 4.87479 42.7937C4.88225 42.7564 4.89719 42.7191 4.90964 42.7117C4.92209 42.7042 4.93204 42.6818 4.93204 42.6594C4.93204 42.6395 4.94698 42.5873 4.9669 42.545C4.98681 42.5003 5.03909 42.3585 5.08141 42.2292C5.12623 42.0998 5.17353 41.9829 5.18349 41.9705C5.19593 41.9556 5.20589 41.9232 5.20589 41.8984C5.20589 41.8735 5.22083 41.8163 5.24074 41.774C5.31294 41.6098 5.42995 41.279 5.42995 41.2343C5.42995 41.2094 5.43991 41.182 5.45235 41.1721C5.4648 41.1646 5.48472 41.1223 5.49467 41.0801C5.50214 41.0353 5.51957 40.9831 5.52953 40.9607C5.53949 40.9408 5.56936 40.8736 5.59177 40.8114C5.61417 40.7493 5.64902 40.6622 5.66894 40.6174C5.68886 40.5727 5.70379 40.5155 5.70379 40.4931C5.70379 40.4682 5.71375 40.4384 5.7262 40.4234C5.73865 40.411 5.7735 40.3289 5.80337 40.2394C5.90047 39.9633 5.91789 39.9185 5.93532 39.9011C5.94528 39.8912 5.95275 39.8663 5.95275 39.8464C5.95275 39.8265 5.96768 39.7768 5.9876 39.7345C6.00503 39.6897 6.03988 39.6051 6.06477 39.543C6.08718 39.4808 6.11705 39.4111 6.1295 39.3888C6.14195 39.3639 6.15191 39.3316 6.15191 39.3141C6.15191 39.2967 6.16684 39.252 6.18676 39.2147C6.20668 39.1773 6.22908 39.1152 6.23904 39.0729C6.249 39.0306 6.26393 38.9958 6.27638 38.9958C6.28634 38.9958 6.30128 38.9659 6.30875 38.9261C6.31373 38.8888 6.34609 38.7968 6.37596 38.7222C6.40584 38.6476 6.43571 38.5605 6.44318 38.5282C6.45065 38.4983 6.46559 38.4735 6.47803 38.4735C6.49048 38.4735 6.50044 38.4511 6.50044 38.4212C6.50044 38.3939 6.5328 38.2969 6.57512 38.2073C6.61745 38.1203 6.64981 38.0307 6.64981 38.0133C6.64981 37.9934 6.65977 37.9735 6.67222 37.9661C6.68466 37.9586 6.70209 37.9114 6.70956 37.8641C6.71952 37.8168 6.73694 37.777 6.74939 37.777C6.76433 37.777 6.77429 37.7547 6.77429 37.7298C6.77429 37.7024 6.78424 37.6751 6.79669 37.6651C6.80914 37.6577 6.82657 37.6179 6.83652 37.5756C6.84648 37.5333 6.86889 37.4711 6.8888 37.4338C6.90872 37.3965 6.92366 37.3517 6.92366 37.3343C6.92366 37.3194 6.9361 37.3045 6.94855 37.3045C6.96349 37.3045 6.97345 37.2821 6.97345 37.2522C6.97345 37.2249 6.98838 37.1702 7.0083 37.1353C7.02822 37.098 7.08299 36.9737 7.1278 36.8568C7.17261 36.7399 7.21742 36.6404 7.22987 36.6379C7.23982 36.6329 7.24729 36.613 7.24729 36.5906C7.24729 36.5707 7.28215 36.4812 7.32198 36.3917C7.3643 36.3046 7.39666 36.2151 7.39666 36.1952C7.39666 36.1753 7.40662 36.1604 7.41907 36.1604C7.43152 36.1604 7.44894 36.1305 7.4589 36.0932C7.46637 36.0559 7.50122 35.9688 7.53359 35.8992C7.75764 35.4217 7.79499 35.3396 7.79499 35.3296C7.79499 35.3222 7.82984 35.2451 7.86967 35.158C7.91199 35.0685 7.94436 34.9839 7.94436 34.969C7.94436 34.9541 7.95681 34.9416 7.96925 34.9416C7.98419 34.9416 7.99415 34.9217 7.99415 34.8969C7.99415 34.872 8.01157 34.8297 8.03149 34.8023C8.05141 34.7775 8.06883 34.7352 8.06883 34.7103C8.06883 34.6879 8.08128 34.668 8.09373 34.668C8.10867 34.668 8.11862 34.6556 8.11862 34.6407C8.11862 34.6233 8.15846 34.5287 8.20576 34.4293C8.25306 34.3298 8.29289 34.2377 8.29289 34.2228C8.29289 34.2079 8.30534 34.1955 8.31779 34.1955C8.33272 34.1955 8.34268 34.1805 8.34268 34.1631C8.34268 34.1333 8.49205 33.8224 8.51695 33.7975C8.52441 33.79 8.5518 33.7353 8.57918 33.6731C8.60657 33.611 8.63395 33.5562 8.64142 33.5488C8.64889 33.5413 8.67628 33.4916 8.70366 33.4369C8.73104 33.3821 8.76839 33.3224 8.78332 33.305C8.80075 33.2876 8.81569 33.2553 8.81569 33.2354C8.81569 33.2155 8.82565 33.2006 8.83809 33.2006C8.85054 33.2006 8.86797 33.1732 8.87544 33.1384C8.88539 33.1036 8.90282 33.0762 8.91527 33.0762C8.93021 33.0762 8.94016 33.0638 8.94016 33.0513C8.94016 33.029 9.0273 32.8897 9.06464 32.8524C9.08207 32.835 9.13684 32.7454 9.15675 32.7031C9.16671 32.6832 9.18165 32.6609 9.18912 32.6534C9.19907 32.6459 9.25633 32.5738 9.31608 32.4917C9.47043 32.2828 9.65963 32.0589 9.77913 31.9396C9.81149 31.9097 9.83639 31.8774 9.83639 31.8699C9.83639 31.8625 9.89863 31.7978 9.9758 31.7257C10.053 31.6535 10.1725 31.5416 10.2397 31.4769C10.3094 31.4123 10.414 31.3227 10.4737 31.2804C10.5335 31.2382 10.5832 31.1934 10.5832 31.181C10.5832 31.171 10.5957 31.1611 10.6081 31.1611C10.6231 31.1611 10.648 31.1486 10.6654 31.1362C10.6828 31.1213 10.7227 31.0864 10.7575 31.0591C10.8197 31.0044 11.1384 30.7905 11.2056 30.7556C11.2255 30.7457 11.3002 30.7034 11.3674 30.6636C11.4371 30.6238 11.5417 30.5641 11.6039 30.5343C11.6662 30.502 11.721 30.4696 11.7234 30.4572C11.7284 30.4472 11.7458 30.4398 11.7608 30.4398C11.7782 30.4398 11.8255 30.4224 11.8653 30.4C11.9077 30.3801 12.0247 30.3278 12.1267 30.2856C12.2288 30.2458 12.3483 30.196 12.3931 30.1761C12.4354 30.1562 12.4877 30.1413 12.5101 30.1413C12.5325 30.1413 12.55 30.1289 12.55 30.1164C12.55 30.1015 12.5649 30.0916 12.5848 30.0916C12.6047 30.0916 12.7093 30.0642 12.8163 30.0319C13.1325 29.9324 13.2495 29.9 13.4586 29.8578C13.5682 29.8354 13.7151 29.803 13.7823 29.7881C13.852 29.7732 13.9864 29.7508 14.081 29.7409C14.1781 29.7309 14.3449 29.7085 14.4544 29.6936C14.7183 29.6563 16.2071 29.6563 16.4709 29.6936C16.5805 29.7085 16.7423 29.7309 16.8319 29.7409C16.9216 29.7508 17.051 29.7732 17.1182 29.7881C17.1879 29.803 17.3323 29.8329 17.4419 29.8578C17.5514 29.8801 17.6609 29.9075 17.6833 29.9199C17.7082 29.9324 17.7456 29.9423 17.7655 29.9423C17.8103 29.9423 18.2435 30.0816 18.3057 30.1164C18.3306 30.1314 18.363 30.1413 18.3779 30.1413C18.3929 30.1413 18.4451 30.1587 18.4949 30.1811C18.5472 30.2035 18.6094 30.2308 18.6368 30.2408C18.6642 30.2532 18.7389 30.2856 18.8036 30.3129C18.8684 30.3428 18.9331 30.3652 18.9455 30.3652C18.9605 30.3652 18.9729 30.3751 18.9729 30.39C18.9729 30.4025 18.9953 30.4149 19.0202 30.4149C19.0476 30.4149 19.0849 30.4298 19.1024 30.4447C19.1198 30.4622 19.1845 30.502 19.2468 30.5343C19.5256 30.6736 19.7546 30.8178 20.0932 31.069C20.2226 31.166 20.3347 31.2506 20.3421 31.2581C20.3496 31.2655 20.4392 31.3451 20.5413 31.4347C20.7579 31.6237 21.0317 31.8973 21.1587 32.0565C21.2085 32.1186 21.2757 32.1933 21.3056 32.2231C21.338 32.2529 21.3628 32.2878 21.3628 32.3027C21.3628 32.3151 21.3728 32.3301 21.3828 32.335C21.4475 32.3624 22.035 33.2279 22.035 33.2976C22.035 33.3125 22.045 33.3249 22.0574 33.3249C22.0699 33.3249 22.0898 33.3498 22.0997 33.3797C22.1097 33.412 22.1221 33.4418 22.1321 33.4493C22.1595 33.4717 22.386 33.9343 22.3835 33.9641C22.3835 33.9816 22.3935 33.9965 22.406 33.9965C22.4184 33.9965 22.4358 34.0263 22.4458 34.0636C22.4533 34.1009 22.4707 34.1383 22.4781 34.1457C22.4956 34.1582 22.5553 34.2775 22.752 34.6929C23.0657 35.357 23.1304 35.5012 23.1304 35.5361C23.1304 35.551 23.1429 35.5634 23.1553 35.5634C23.1702 35.5634 23.1802 35.5808 23.1802 35.6032C23.1802 35.6256 23.1951 35.6729 23.215 35.7077C23.235 35.745 23.2698 35.8196 23.2922 35.8743C23.3445 36.0012 23.3594 36.0385 23.4516 36.2424C23.4939 36.3369 23.5287 36.4165 23.5287 36.4215C23.5287 36.4265 23.5636 36.5061 23.6059 36.6006C23.6457 36.6926 23.6905 36.7921 23.7005 36.8195C23.7129 36.8468 23.7578 36.9513 23.8001 37.0533C23.8424 37.1528 23.8773 37.2522 23.8773 37.2697C23.8773 37.2896 23.8897 37.3045 23.9022 37.3045C23.9171 37.3045 23.927 37.3219 23.927 37.3443C23.927 37.3667 23.9445 37.4214 23.9644 37.4686C23.9843 37.5159 24.0192 37.5905 24.0391 37.6378C24.059 37.685 24.0764 37.7348 24.0764 37.7472C24.0764 37.7621 24.0914 37.8044 24.1113 37.8442C24.1312 37.8815 24.1586 37.9412 24.171 37.976C24.1835 38.0108 24.2133 38.0879 24.2382 38.1501C24.2631 38.2123 24.2905 38.2844 24.303 38.3118C24.3154 38.3392 24.3752 38.4958 24.4374 38.66C24.4996 38.8242 24.5594 38.9759 24.5718 38.9958C24.5843 39.0182 24.6017 39.0704 24.6092 39.1152C24.6191 39.1574 24.639 39.1997 24.6515 39.2072C24.6639 39.2171 24.6739 39.242 24.6739 39.2644C24.6739 39.2868 24.6913 39.339 24.7112 39.3788C24.7312 39.4161 24.7486 39.4708 24.7486 39.4957C24.7486 39.5231 24.7585 39.543 24.7735 39.543C24.7859 39.543 24.8058 39.5877 24.8133 39.6425C24.8233 39.6972 24.8382 39.7419 24.8482 39.7419C24.8606 39.7419 24.8756 39.7867 24.8855 39.8414C24.8955 39.8961 24.9129 39.9459 24.9253 39.9558C24.9378 39.9633 24.9477 39.9931 24.9477 40.023C24.9477 40.0528 24.9652 40.1001 24.9851 40.125C25.005 40.1523 25.0224 40.1971 25.0224 40.2269C25.0224 40.2568 25.0324 40.2891 25.0424 40.3016C25.0548 40.3165 25.0897 40.4035 25.1195 40.5005C25.1494 40.5951 25.1843 40.697 25.1967 40.7244C25.2067 40.7517 25.2515 40.8736 25.2963 40.998C25.3386 41.1199 25.3834 41.2392 25.3934 41.2591C25.4033 41.279 25.4307 41.3636 25.4581 41.4457C25.483 41.5278 25.5178 41.6297 25.5378 41.6745C25.5552 41.7168 25.5701 41.764 25.5701 41.779C25.5701 41.7939 25.5801 41.8262 25.5925 41.8511C25.6149 41.8984 25.6473 41.9854 25.7245 42.2292C25.7519 42.3187 25.7917 42.4256 25.8091 42.4704C25.829 42.5127 25.844 42.5699 25.844 42.5997C25.844 42.6296 25.8564 42.652 25.8689 42.652C25.8838 42.652 25.8938 42.6769 25.8938 42.7067C25.8938 42.739 25.9087 42.7913 25.9261 42.8261C25.946 42.8609 25.966 42.9256 25.9759 42.9679C25.9834 43.0101 26.0133 43.0947 26.0406 43.1544C26.068 43.2141 26.0979 43.2887 26.1079 43.3235C26.1153 43.3583 26.1328 43.3907 26.1402 43.3981C26.1477 43.4056 26.19 43.4827 26.2348 43.5722C26.3444 43.8036 26.5659 44.0995 26.8024 44.3383C26.9145 44.4502 27.0165 44.5423 27.0265 44.5423C27.0365 44.5423 27.0862 44.5746 27.1385 44.6169C27.1908 44.6567 27.2431 44.6915 27.258 44.6915C27.273 44.6915 27.2879 44.699 27.2929 44.7089C27.2979 44.7213 27.3452 44.7487 27.3999 44.7736C27.4547 44.7984 27.5319 44.8357 27.5692 44.8556C27.609 44.8755 27.6588 44.8905 27.6837 44.8905C27.7061 44.8905 27.736 44.9004 27.7509 44.9153C27.7908 44.9551 28.1094 44.9999 28.3833 44.9999C28.6472 45.0024 28.9982 44.9551 29.043 44.9129C29.0554 44.9004 29.0853 44.8905 29.1102 44.8905C29.1849 44.8905 29.6728 44.6592 29.7525 44.587C29.7799 44.5622 29.8073 44.5423 29.8123 44.5423C29.8446 44.5423 30.1907 44.2164 30.2878 44.0946C30.4222 43.9254 30.6736 43.4354 30.6736 43.3409C30.6736 43.3186 30.6861 43.2937 30.6985 43.2862C30.7135 43.2788 30.7234 43.239 30.7234 43.1992C30.7234 43.1594 30.7409 43.0524 30.7633 42.9579C30.8255 42.6868 30.7807 42.0426 30.6836 41.8138C30.6637 41.7715 30.6487 41.7143 30.6487 41.6869C30.6487 41.6571 30.6388 41.6297 30.6263 41.6223C30.6139 41.6148 30.5965 41.5676 30.589 41.5203C30.579 41.473 30.5616 41.4332 30.5492 41.4332C30.5342 41.4332 30.5243 41.4059 30.5243 41.3736C30.5243 41.3387 30.5143 41.3064 30.5019 41.2989C30.4894 41.2915 30.472 41.2542 30.4645 41.2169C30.4546 41.1771 30.4322 41.1124 30.4147 41.0726C30.3948 41.0303 30.3699 40.9706 30.355 40.9358C30.3425 40.901 30.2952 40.7841 30.2504 40.6746C30.2056 40.5652 30.1608 40.4533 30.1508 40.4259C30.1384 40.3986 30.0961 40.2866 30.0537 40.1772C30.0089 40.0678 29.9666 39.9608 29.9542 39.9409C29.9417 39.9185 29.9243 39.8663 29.9143 39.8215C29.9069 39.7768 29.8869 39.7419 29.8745 39.7419C29.8621 39.7419 29.8521 39.7171 29.8521 39.6847C29.8521 39.6549 29.8347 39.6076 29.8148 39.5828C29.7948 39.5554 29.7774 39.5081 29.7774 39.4758C29.7774 39.4435 29.7675 39.4186 29.755 39.4186C29.7426 39.4186 29.7251 39.3838 29.7152 39.3415C29.7052 39.2992 29.6828 39.237 29.6629 39.1997C29.643 39.1624 29.628 39.1127 29.628 39.0878C29.628 39.0654 29.6181 39.0455 29.6031 39.0455C29.5907 39.0455 29.5782 39.0281 29.5782 39.0057C29.5782 38.9833 29.5608 38.9261 29.5384 38.8764C29.516 38.8242 29.4812 38.7495 29.4637 38.7048C29.4438 38.6625 29.4289 38.6103 29.4289 38.5904C29.4289 38.568 29.4189 38.5456 29.4065 38.5381C29.394 38.5307 29.3766 38.4958 29.3691 38.461C29.3592 38.4262 29.3243 38.3367 29.292 38.2621C29.2571 38.1899 29.2297 38.1103 29.2297 38.0904C29.2297 38.068 29.2198 38.0506 29.2048 38.0506C29.1924 38.0506 29.1799 38.0332 29.1799 38.0133C29.1799 37.9934 29.165 37.9412 29.1451 37.8964C29.1252 37.8517 29.0928 37.7746 29.0704 37.7223C29.048 37.6726 29.0306 37.6228 29.0306 37.6104C29.0306 37.5855 28.9758 37.4612 28.9285 37.3741C28.916 37.3492 28.9061 37.3169 28.9061 37.302C28.9061 37.2721 28.8488 37.1329 28.7916 37.0259C28.7716 36.9911 28.7567 36.9364 28.7567 36.909C28.7567 36.8792 28.7468 36.8568 28.7343 36.8568C28.7219 36.8568 28.7019 36.822 28.6945 36.7772C28.6845 36.7324 28.6671 36.6802 28.6546 36.6578C28.6447 36.6379 28.6173 36.5782 28.5949 36.526C28.575 36.4762 28.5401 36.3966 28.5202 36.3494C28.5003 36.3021 28.4829 36.2499 28.4829 36.23C28.4829 36.2101 28.4729 36.1852 28.4629 36.1703C28.4356 36.1429 28.2837 35.7549 28.2837 35.7176C28.2837 35.7052 28.2737 35.6878 28.2638 35.6828C28.2464 35.6754 28.0995 35.3122 28.0248 35.0958C28.0099 35.0535 27.9899 35.0162 27.98 35.0162C27.97 35.0162 27.9551 34.974 27.9451 34.9217C27.9352 34.872 27.9202 34.8247 27.9128 34.8173C27.9053 34.8098 27.8605 34.7103 27.8157 34.5934C27.7684 34.4765 27.7211 34.3596 27.7111 34.3323C27.6987 34.3049 27.6364 34.1532 27.5742 33.9965C27.5095 33.8398 27.4422 33.6707 27.4223 33.6234C27.3825 33.5314 27.3676 33.499 27.3028 33.3374C27.2779 33.2827 27.2506 33.218 27.2381 33.1956C27.2232 33.1707 27.2132 33.1384 27.2132 33.1235C27.2132 33.1085 27.1808 33.024 27.1385 32.9344C27.0987 32.8474 27.0638 32.7653 27.0638 32.7529C27.0638 32.7404 27.0489 32.7006 27.029 32.6609C26.9692 32.5464 26.9145 32.4121 26.9145 32.3823C26.9145 32.3674 26.9045 32.3549 26.8896 32.3549C26.8771 32.3549 26.8647 32.3425 26.8647 32.3251C26.8647 32.2977 26.5186 31.5864 26.4912 31.559C26.4838 31.5516 26.4589 31.5068 26.434 31.4595C26.3444 31.2904 26.3045 31.2232 26.2747 31.1909C26.2572 31.1735 26.2423 31.1412 26.2423 31.1213C26.2423 31.1014 26.2323 31.0864 26.2174 31.0864C26.205 31.0864 26.1925 31.0715 26.1925 31.0516C26.1925 31.0317 26.1776 30.9994 26.1626 30.982C26.1253 30.9422 26.0904 30.8875 26.0158 30.7507C25.9884 30.696 25.956 30.6462 25.946 30.6387C25.9137 30.6139 25.7693 30.3925 25.7693 30.3701C25.7693 30.3552 25.7618 30.3403 25.7519 30.3353C25.727 30.3254 25.5701 30.1239 25.5701 30.104C25.5701 30.0891 25.5602 30.0742 25.4457 29.9398C25.4058 29.8901 25.371 29.8428 25.371 29.8329C25.371 29.8254 25.3511 29.7981 25.3286 29.7732C25.3037 29.7483 25.2465 29.6812 25.2017 29.6265C25.1544 29.5692 25.0996 29.4996 25.0772 29.4722C25.0523 29.4474 25.0175 29.4001 24.9975 29.3703C24.9776 29.3379 24.9004 29.2534 24.8307 29.1812C24.7585 29.1066 24.6988 29.0395 24.6988 29.032C24.6988 29.0121 23.8698 28.1938 23.6756 28.0197C23.586 27.9401 23.4715 27.8481 23.4217 27.8108C23.3719 27.776 23.3296 27.7362 23.3296 27.7237C23.3296 27.7138 23.3171 27.7038 23.3022 27.7038C23.2848 27.7038 23.2474 27.6765 23.215 27.6417C23.1827 27.6068 23.1503 27.5795 23.1404 27.5795C23.1229 27.5795 22.9536 27.4501 22.8566 27.3631C22.8217 27.3308 22.7819 27.3059 22.7644 27.3059C22.747 27.3059 22.7246 27.291 22.7147 27.2736C22.7047 27.2586 22.5952 27.1765 22.4707 27.0945C22.3487 27.0124 22.2441 26.9378 22.2392 26.9253C22.2342 26.9154 22.2143 26.9079 22.1968 26.9079C22.1769 26.9079 22.147 26.893 22.1296 26.8756C22.0798 26.8308 22.0051 26.7836 21.9554 26.7686C21.9305 26.7587 21.9105 26.7438 21.9105 26.7313C21.9105 26.7189 21.8956 26.709 21.8757 26.709C21.8558 26.709 21.8234 26.694 21.806 26.6766C21.7861 26.6617 21.7338 26.6244 21.6865 26.5995C21.6392 26.5722 21.5496 26.5249 21.4873 26.4901C21.328 26.403 20.6235 26.0523 20.504 26.0001C20.4492 25.9777 20.372 25.9454 20.3297 25.928C20.2899 25.9081 20.2052 25.8757 20.143 25.8509C20.0235 25.8036 19.8841 25.7439 19.8144 25.7116C19.7895 25.6991 19.7521 25.6892 19.7297 25.6892C19.7073 25.6892 19.655 25.6743 19.6127 25.6544C19.5131 25.6121 19.2094 25.5101 19.0103 25.4529C18.9281 25.4305 18.836 25.4007 18.8086 25.3907C18.7787 25.3783 18.704 25.3609 18.6393 25.3534C18.5771 25.3435 18.5248 25.3261 18.5248 25.3161C18.5248 25.3062 18.4576 25.2888 18.3754 25.2788C18.2933 25.2689 18.2186 25.2514 18.2111 25.239C18.2037 25.2266 18.1613 25.2166 18.119 25.2166C18.0742 25.2166 17.9995 25.2042 17.9522 25.1918C17.7904 25.142 17.2776 25.0649 16.8319 25.0201C16.6875 25.0052 16.4809 24.9803 16.3689 24.9679C16.1349 24.9381 14.6486 24.9405 14.4295 24.9704Z" fill="#35414D"/>
<path d="M55.872 46.48C52.672 46.48 49.712 45.96 46.992 44.92C44.312 43.84 41.972 42.34 39.972 40.42C38.012 38.46 36.472 36.18 35.352 33.58C34.232 30.98 33.672 28.12 33.672 25C33.672 21.88 34.232 19.02 35.352 16.42C36.472 13.82 38.032 11.56 40.032 9.64C42.032 7.68 44.372 6.18 47.052 5.14C49.772 4.06 52.732 3.52 55.932 3.52C59.172 3.52 62.152 4.08 64.872 5.2C67.632 6.28 69.972 7.9 71.892 10.06L67.992 13.84C66.392 12.16 64.592 10.92 62.592 10.12C60.592 9.28 58.452 8.86 56.172 8.86C53.812 8.86 51.612 9.26 49.572 10.06C47.572 10.86 45.832 11.98 44.352 13.42C42.872 14.86 41.712 16.58 40.872 18.58C40.072 20.54 39.672 22.68 39.672 25C39.672 27.32 40.072 29.48 40.872 31.48C41.712 33.44 42.872 35.14 44.352 36.58C45.832 38.02 47.572 39.14 49.572 39.94C51.612 40.74 53.812 41.14 56.172 41.14C58.452 41.14 60.592 40.74 62.592 39.94C64.592 39.1 66.392 37.82 67.992 36.1L71.892 39.88C69.972 42.04 67.632 43.68 64.872 44.8C62.152 45.92 59.152 46.48 55.872 46.48ZM94.9325 46.48C91.7325 46.48 88.7525 45.94 85.9925 44.86C83.2725 43.78 80.9125 42.28 78.9125 40.36C76.9125 38.4 75.3525 36.12 74.2325 33.52C73.1125 30.92 72.5525 28.08 72.5525 25C72.5525 21.92 73.1125 19.08 74.2325 16.48C75.3525 13.88 76.9125 11.62 78.9125 9.7C80.9125 7.74 83.2725 6.22 85.9925 5.14C88.7125 4.06 91.6925 3.52 94.9325 3.52C98.1325 3.52 101.072 4.06 103.752 5.14C106.472 6.18 108.832 7.68 110.832 9.64C112.872 11.56 114.432 13.82 115.512 16.42C116.632 19.02 117.192 21.88 117.192 25C117.192 28.12 116.632 30.98 115.512 33.58C114.432 36.18 112.872 38.46 110.832 40.42C108.832 42.34 106.472 43.84 103.752 44.92C101.072 45.96 98.1325 46.48 94.9325 46.48ZM94.9325 41.14C97.2525 41.14 99.3925 40.74 101.352 39.94C103.352 39.14 105.072 38.02 106.512 36.58C107.992 35.1 109.132 33.38 109.932 31.42C110.772 29.46 111.192 27.32 111.192 25C111.192 22.68 110.772 20.54 109.932 18.58C109.132 16.62 107.992 14.92 106.512 13.48C105.072 12 103.352 10.86 101.352 10.06C99.3925 9.26 97.2525 8.86 94.9325 8.86C92.5725 8.86 90.3925 9.26 88.3925 10.06C86.4325 10.86 84.7125 12 83.2325 13.48C81.7525 14.92 80.5925 16.62 79.7525 18.58C78.9525 20.54 78.5525 22.68 78.5525 25C78.5525 27.32 78.9525 29.46 79.7525 31.42C80.5925 33.38 81.7525 35.1 83.2325 36.58C84.7125 38.02 86.4325 39.14 88.3925 39.94C90.3925 40.74 92.5725 41.14 94.9325 41.14ZM122.763 46V4H127.683L155.463 38.5H152.883V4H158.883V46H153.963L126.183 11.5H128.763V46H122.763ZM167.854 46V4H172.774L200.554 38.5H197.974V4H203.974V46H199.054L171.274 11.5H173.854V46H167.854ZM218.406 22.12H240.006V27.22H218.406V22.12ZM218.946 40.78H243.426V46H212.946V4H242.586V9.22H218.946V40.78ZM268.263 46.48C265.063 46.48 262.103 45.96 259.383 44.92C256.703 43.84 254.363 42.34 252.363 40.42C250.403 38.46 248.863 36.18 247.743 33.58C246.623 30.98 246.063 28.12 246.063 25C246.063 21.88 246.623 19.02 247.743 16.42C248.863 13.82 250.423 11.56 252.423 9.64C254.423 7.68 256.763 6.18 259.443 5.14C262.163 4.06 265.123 3.52 268.323 3.52C271.563 3.52 274.543 4.08 277.263 5.2C280.023 6.28 282.363 7.9 284.283 10.06L280.383 13.84C278.783 12.16 276.983 10.92 274.983 10.12C272.983 9.28 270.843 8.86 268.563 8.86C266.203 8.86 264.003 9.26 261.963 10.06C259.963 10.86 258.223 11.98 256.743 13.42C255.263 14.86 254.103 16.58 253.263 18.58C252.463 20.54 252.063 22.68 252.063 25C252.063 27.32 252.463 29.48 253.263 31.48C254.103 33.44 255.263 35.14 256.743 36.58C258.223 38.02 259.963 39.14 261.963 39.94C264.003 40.74 266.203 41.14 268.563 41.14C270.843 41.14 272.983 40.74 274.983 39.94C276.983 39.1 278.783 37.82 280.383 36.1L284.283 39.88C282.363 42.04 280.023 43.68 277.263 44.8C274.543 45.92 271.543 46.48 268.263 46.48ZM297.113 46V9.22H282.713V4H317.453V9.22H303.053V46H297.113Z" fill="#35414D"/>
</svg>
