<?xml version="1.0" encoding="UTF-8" standalone="no"?>
<svg
   xmlns:dc="http://purl.org/dc/elements/1.1/"
   xmlns:cc="http://creativecommons.org/ns#"
   xmlns:rdf="http://www.w3.org/1999/02/22-rdf-syntax-ns#"
   xmlns:svg="http://www.w3.org/2000/svg"
   xmlns="http://www.w3.org/2000/svg"
   viewBox="0 0 829.44879 272.21387"
   height="272.21387"
   width="829.44879"
   xml:space="preserve"
   id="svg2"
   version="1.1"><metadata
     id="metadata8"><rdf:RDF><cc:Work
         rdf:about=""><dc:format>image/svg+xml</dc:format><dc:type
           rdf:resource="http://purl.org/dc/dcmitype/StillImage" /></cc:Work></rdf:RDF></metadata><defs
     id="defs6"><clipPath
       id="clipPath14"
       clipPathUnits="userSpaceOnUse"><path
         id="path12"
         d="M 0,0 H 1920 V 1080 H 0 Z" /></clipPath><clipPath
       id="clipPath24"
       clipPathUnits="userSpaceOnUse"><path
         id="path22"
         d="M 0,0 H 1920 V 1080 H 0 Z" /></clipPath></defs><g
     clip-path="url(#clipPath14)"
     transform="matrix(1.3333333,0,0,-1.3333333,-871.57653,860.3268)"
     id="g10"><g
       id="g16" /><g
       id="g18"><g
         clip-path="url(#clipPath24)"
         id="g20"><path
           id="path26"
           style="fill:#ff8c00;fill-opacity:1;fill-rule:nonzero;stroke:none"
           d="m 756.7441,583.5347 c 15.138,0 27.411,-12.272 27.411,-27.411 0,-15.138 -12.273,-27.411 -27.411,-27.411 -15.138,0 -27.411,12.273 -27.411,27.411 0,15.139 12.273,27.411 27.411,27.411 m -33.905,-93.363 c 5.546,13.864 18.973,22.954 33.905,22.954 14.932,0 28.359,-9.09 33.904,-22.954 l 12.317,-30.792 h 50.523 l -64.496,161.24 h -64.496 l -64.496,-161.24 h 50.523 z" /><path
           id="path28"
           style="fill:#000000;fill-opacity:1;fill-rule:nonzero;stroke:none"
           d="m 940.7002,525.624 -14.335,42.102 h -0.224 l -14.338,-42.102 z m -32.283,-9.032 -7.111,-20.205 h -10.499 l 29.801,80.708 h 11.29 l 29.685,-80.708 h -10.497 l -7.111,20.205 z" /><path
           id="path30"
           style="fill:#000000;fill-opacity:1;fill-rule:nonzero;stroke:none"
           d="m 1008.194,525.1699 c 0,13.545 -6.66,22.464 -17.3837,22.464 -11.853,0 -17.837,-11.174 -17.837,-22.464 0,-11.286 5.984,-22.463 17.837,-22.463 10.7237,0 17.3837,8.919 17.3837,22.463 m 9.029,51.925 v -80.708 h -9.029 v 7.11 h -0.227 c -3.385,-4.402 -8.8047,-8.691 -18.0597,-8.691 -14.449,0 -25.963,11.4 -25.963,30.364 0,18.965 11.514,30.365 25.963,30.365 9.255,0 14.6747,-4.062 18.0597,-9.029 h 0.227 v 30.589 z" /><path
           id="path32"
           style="fill:#000000;fill-opacity:1;fill-rule:nonzero;stroke:none"
           d="m 1060.109,555.1982 v -9.032 h -0.224 c -12.53,2.031 -21.222,-6.774 -21.222,-19.078 v -30.702 h -9.033 v 57.568 h 9.033 v -11.4 h 0.226 c 3.046,7.564 7.675,12.981 15.916,12.981 2.146,0 3.723,-0.113 5.304,-0.337" /><path
           id="path34"
           style="fill:#000000;fill-opacity:1;fill-rule:nonzero;stroke:none"
           d="m 1078.504,496.387 h -9.028 v 57.567 h 9.028 z m -10.159,74.16 c 0,3.502 3.162,5.42 5.646,5.42 2.595,0 5.644,-1.918 5.644,-5.42 0,-3.498 -3.049,-5.416 -5.644,-5.416 -2.484,0 -5.646,1.918 -5.646,5.416" /><path
           id="path36"
           style="fill:#000000;fill-opacity:1;fill-rule:nonzero;stroke:none"
           d="m 1127.267,518.623 v 9.596 c -1.694,-1.695 -7.225,-3.276 -13.321,-4.516 -11.174,-2.372 -16.366,-5.193 -16.366,-12.077 0,-5.644 3.384,-8.919 10.835,-8.919 10.724,0 18.852,4.856 18.852,15.916 m -11.74,29.011 c -10.95,0 -14.563,-3.162 -15.126,-11.514 h -9.032 c 0.567,11.064 7.451,19.415 24.158,19.415 10.95,0 20.768,-4.289 20.768,-18.174 v -27.994 c 0,-4.515 0.791,-6.997 6.548,-6.32 v -6.32 c -2.371,-0.791 -3.612,-0.905 -5.306,-0.905 -5.417,0 -8.692,1.468 -10.27,7.788 h -0.227 c -3.612,-5.419 -10.045,-8.804 -19.528,-8.804 -11.627,0 -18.965,6.66 -18.965,16.369 0,13.092 9.709,16.48 24.609,19.302 9.709,1.804 14.111,3.048 14.111,8.805 0,4.513 -2.484,8.352 -11.74,8.352" /><path
           id="path38"
           style="fill:#000000;fill-opacity:1;fill-rule:nonzero;stroke:none"
           d="m 1197.132,536.5703 v -40.184 h -9.031 v 37.926 c 0,7.451 -3.499,13.321 -12.531,13.321 -10.157,0 -16.931,-6.434 -16.931,-15.352 v -35.895 h -9.031 v 57.568 h 9.031 v -6.884 h 0.227 c 3.045,4.062 9.142,8.465 18.961,8.465 10.5,0 19.305,-5.757 19.305,-18.965" /><path
           id="path40"
           style="fill:#000000;fill-opacity:1;fill-rule:nonzero;stroke:none"
           d="m 1244.424,518.623 v 9.596 c -1.694,-1.695 -7.225,-3.276 -13.321,-4.516 -11.173,-2.372 -16.366,-5.193 -16.366,-12.077 0,-5.644 3.385,-8.919 10.835,-8.919 10.724,0 18.852,4.856 18.852,15.916 m -11.74,29.011 c -10.95,0 -14.562,-3.162 -15.126,-11.514 h -9.031 c 0.566,11.064 7.45,19.415 24.157,19.415 10.95,0 20.769,-4.289 20.769,-18.174 v -27.994 c 0,-4.515 0.79,-6.997 6.547,-6.32 v -6.32 c -2.371,-0.791 -3.612,-0.905 -5.306,-0.905 -5.416,0 -8.692,1.468 -10.27,7.788 h -0.227 c -3.612,-5.419 -10.045,-8.804 -19.528,-8.804 -11.627,0 -18.965,6.66 -18.965,16.369 0,13.092 9.709,16.48 24.609,19.302 9.709,1.804 14.111,3.048 14.111,8.805 0,4.513 -2.484,8.352 -11.74,8.352" /></g></g></g></svg>