<svg width="84" height="70" viewBox="0 0 84 70" fill="none" xmlns="http://www.w3.org/2000/svg">
<path d="M27.142 56.633C28.3092 53.6876 30.3284 51.1618 32.9385 49.3818C35.5487 47.6018 38.63 46.6495 41.7842 46.6479C44.939 46.6492 48.021 47.6013 50.6319 49.3813C53.2429 51.1613 55.2628 53.6873 56.4307 56.633L61.752 70H83.5727L55.718 0H27.8633L0 70H21.8208L27.142 56.633ZM41.7842 16.1021C44.9241 16.1021 47.9354 17.3558 50.1557 19.5874C52.3759 21.819 53.6232 24.8458 53.6232 28.0017C53.6232 31.1577 52.3759 34.1844 50.1557 36.4161C47.9354 38.6477 44.9241 39.9014 41.7842 39.9014C38.6447 39.9002 35.634 38.6461 33.414 36.4148C31.194 34.1834 29.9463 31.1574 29.9452 28.0017C29.9452 26.4391 30.2515 24.8917 30.8464 23.4479C31.4414 22.0042 32.3134 20.6924 33.4128 19.5874C34.5121 18.4824 35.8172 17.6059 37.2536 17.0079C38.69 16.4099 40.2295 16.1021 41.7842 16.1021Z" fill="#FF8C00"/>
</svg>
